<?xml version="1.0" encoding="UTF-8"?>
<svg xmlns="http://www.w3.org/2000/svg" width="161" height="52" viewBox="0 0 161 52" fill="none">
  <path d="M51.9736 7.5568C51.9262 7.68081 51.1426 8.90459 50.2344 10.2761C49.3261 11.6484 46.1527 14.0314 45.2919 12.391L43.8292 9.61154C42.9654 7.97042 42.2388 6.58921 42.2119 6.54095C42.1841 6.49268 43.4666 5.73376 45.1285 4.95998L45.3875 4.83894C47.0486 4.06665 48.5631 3.431 48.752 3.42506C48.9417 3.4206 49.7989 4.31988 50.5255 5.24959C51.2499 6.18079 51.9028 7.07487 51.9736 7.23675V7.5568ZM47.4732 22.9788C47.4929 23.4318 47.2587 25.3046 46.9545 27.1395L46.3015 31.0544C45.9966 32.8879 45.6362 34.5773 45.4998 34.8075C45.3663 35.0369 43.827 35.5894 42.5066 35.928C41.1854 36.2659 40.1488 36.3208 40.1991 36.0535C40.2502 35.7832 39.4849 33.8948 38.4971 32.4312C37.5086 30.9675 36.7003 29.8128 36.7018 29.8641C36.7032 29.9146 36.9287 31.1161 37.1818 32.4178C37.4335 33.7218 37.6166 35.1127 37.5903 35.5107C37.5626 35.908 37.1169 36.8288 36.9717 37.0359C36.8243 37.2424 36.167 38.1699 35.509 39.0966C34.8495 40.0241 33.5335 41.8843 32.5793 43.2291C31.6258 44.5739 30.6198 45.8475 30.3418 46.0569C30.0639 46.2663 28.5166 46.4386 27.4588 46.4386C26.4031 46.4386 25.2695 46.3517 24.939 46.2448C24.6107 46.1386 23.2837 44.5635 22.3215 43.2054C21.3585 41.8472 20.0344 39.9796 19.3793 39.055C18.7235 38.1305 18.0749 37.2142 17.9341 37.0181C17.7963 36.8213 17.5686 36.355 17.43 35.983C17.2922 35.6094 17.4862 33.7218 17.7364 32.4178C17.9888 31.1161 18.2004 30.0089 18.2077 29.9561C18.215 29.9042 17.4111 30.9675 16.4226 32.4312C15.4333 33.8948 14.6396 35.3065 14.6579 35.5693C14.6746 35.8322 13.727 36.2473 12.4087 35.9139C11.0898 35.5812 9.83426 35.1817 9.62051 35.028C9.40676 34.8743 8.9209 32.8879 8.61524 31.0544L7.96377 27.1395C7.65883 25.3046 7.42539 23.4318 7.44508 22.9788C7.46478 22.5236 7.95575 21.2456 8.19722 20.7874C8.43723 20.3293 9.34184 18.6117 10.2041 16.9713L13.4096 10.8747C14.2712 9.23505 15.1933 7.66596 15.4581 7.38675C15.7244 7.10828 16.4517 6.76149 16.4853 6.75333C16.5196 6.7459 18.0034 6.39837 19.7842 5.98327L23.0751 5.21395C24.8544 4.79736 26.7307 4.42309 27.2428 4.38151C27.7549 4.33918 30.2871 4.80924 32.0679 5.23251L35.1362 5.96173C36.9163 6.38575 38.3994 6.73847 38.4315 6.74739C38.4636 6.75407 38.7641 6.91521 39.0983 7.10383C39.4331 7.29319 40.647 9.23505 41.5086 10.8747L44.7148 16.9713C45.5757 18.6117 46.4803 20.3293 46.721 20.7874C46.9632 21.2456 47.4549 22.5236 47.4732 22.9788ZM4.68385 10.2761C3.77414 8.90459 2.99209 7.68081 2.94467 7.5568V7.23675C3.01543 7.07487 3.66689 6.18079 4.39277 5.24959C5.1201 4.31988 5.83065 3.50155 5.97218 3.431C6.11444 3.3612 7.86893 4.06665 9.53005 4.83894L9.79049 4.95998C11.4516 5.73376 12.7874 6.4058 12.7582 6.45406C12.7283 6.50233 11.9513 7.97042 11.0898 9.61154L9.62781 12.391C8.76551 14.0314 5.59283 11.6484 4.68385 10.2761ZM54.3744 6.69244C54.1176 5.91346 53.3108 4.51517 52.5856 3.58472C51.8598 2.65277 50.6779 1.55003 49.9594 1.13418C49.2408 0.716109 45.9558 1.63023 44.2946 2.40401L43.0822 2.96688C41.4196 3.74066 40.0372 4.38522 40.0094 4.39933C39.9824 4.41344 39.7869 4.39933 39.6352 4.33547C39.4834 4.26864 37.6348 3.80526 35.8541 3.38199L32.6675 2.62381C30.8875 2.20054 28.8346 1.79731 28.1058 1.72677C27.3763 1.65622 24.2656 2.18717 22.4849 2.60302L19.0736 3.40055C17.2922 3.8164 15.7113 4.19438 15.5617 4.24116C15.4114 4.28572 14.9905 4.44166 14.9628 4.42606C14.9343 4.40973 13.4979 3.74066 11.8368 2.96688L10.6251 2.40401C8.96248 1.63023 6.91107 0.945568 6.06629 0.882448C5.2215 0.819328 3.05848 2.65277 2.33333 3.58472C1.606 4.51517 0.800607 5.91495 0.543086 6.69318C0.284106 7.47215 1.68406 10.542 2.70758 12.0836L4.79765 15.2396C5.81898 16.7819 6.38217 18.5641 6.04659 19.1998C5.71247 19.8377 5.25433 20.9701 5.02891 21.7179C4.80349 22.4679 5.06393 25.7516 5.36887 27.5866L6.02179 31.5015C6.32746 33.3349 6.90013 35.4498 7.29553 36.1998C7.69166 36.9506 10.8257 38.2753 12.5999 38.7224L13.3936 38.9229C15.1671 39.3706 17.4928 40.9717 18.5615 42.4806L19.9943 44.4989C21.0623 46.0079 22.4564 47.6638 23.0918 48.1799C23.7251 48.6953 26.4031 49.1178 27.4588 49.1178C28.5166 49.1178 30.0179 48.9359 30.8014 48.7138C31.5827 48.4926 33.8545 46.0079 34.9232 44.4989L36.3326 42.5118C37.4014 41.0043 39.7256 39.3996 41.4991 38.9466L42.3249 38.735C44.0969 38.2813 46.1235 37.5357 46.8268 37.0768C47.5315 36.6171 48.5915 33.3349 48.8972 31.5015L49.5494 27.5873C49.8536 25.7516 50.087 23.6122 50.0673 22.8273C50.0469 22.0454 49.2065 19.8377 48.8709 19.1998C48.5368 18.5641 49.1 16.7819 50.1206 15.2396L52.2107 12.0836C53.2335 10.542 54.6327 7.47215 54.3744 6.69244Z" fill="white"></path>
  <path d="M22.8155 32.518C22.423 31.7189 22.8199 31.0625 23.6997 31.0625H31.2189C32.0972 31.0625 32.4948 31.7189 32.103 32.518L28.1738 37.0656C27.7806 37.8653 27.1394 37.8653 26.7447 37.0656L22.8155 32.518Z" fill="white"></path>
  <path d="M27.4571 42.271C27.4571 42.271 27.9882 42.7656 28.6375 43.3693L31.1908 45.7448C31.8415 46.3478 32.5506 46.408 32.7673 45.8763C32.9854 45.3461 32.5711 44.4995 31.8445 43.9953L29.4254 42.3171C28.6995 41.8121 28.1071 41.3829 28.11 41.3628C28.1115 41.3443 28.1152 40.5564 28.1152 39.6616V35.0769C28.1152 34.1813 27.9831 33.1476 27.8204 32.7793H27.0938C26.9319 33.1476 26.7998 34.1813 26.7998 35.0769V39.6616C26.7998 40.5564 26.8013 41.3057 26.802 41.3272C26.8035 41.3465 26.2155 41.8121 25.4889 42.3171L23.0698 43.9953C22.3439 44.4995 21.9274 45.3461 22.1462 45.8763C22.3651 46.408 23.0727 46.3478 23.7234 45.7448L26.2775 43.3693C26.926 42.7656 27.4571 42.271 27.4571 42.271Z" fill="white"></path>
  <path d="M13.4712 20.4895C12.5265 20.5178 12.5192 20.6507 13.4544 20.7866L21.2968 21.9272C22.2306 22.0631 22.9236 22.9564 22.8361 23.9121L21.8352 27.4743C21.7506 28.43 22.0438 29.2402 22.4903 29.2728C22.9382 29.3063 23.3059 29.3018 23.3088 29.2632C23.3103 29.2253 23.3467 28.4085 23.3869 27.449L24.2061 24.1052C24.247 23.1458 24.3002 21.8693 24.3258 21.2693C24.3528 20.6692 24.1033 20.1851 23.7728 20.1955C23.443 20.2051 22.4006 20.2341 21.4566 20.2616L13.4712 20.4895Z" fill="white"></path>
  <path d="M33.4603 20.2616C32.5163 20.2341 31.4738 20.2051 31.1455 20.1955C30.8143 20.1851 30.5648 20.6692 30.5896 21.2693C30.6159 21.87 30.6706 23.1458 30.7107 24.1052L31.5292 27.449C31.5701 28.4085 31.6058 29.2253 31.6102 29.2632C31.6116 29.3018 31.9793 29.3063 32.4265 29.2728C32.8737 29.2402 33.1677 28.43 33.0802 27.4743L32.0807 23.9121C31.9939 22.9564 32.687 22.0631 33.6207 21.9272L41.4624 20.7873C42.3962 20.6507 42.3903 20.5178 41.4456 20.4895L33.4603 20.2616Z" fill="white"></path>
  <path d="M20.5195 21.6958C20.5195 22.3084 20.0329 22.8037 19.4325 22.8037C18.8314 22.8037 18.3448 22.3084 18.3448 21.6958C18.3448 21.0846 18.8314 20.5886 19.4325 20.5886C20.0329 20.5886 20.5195 21.0846 20.5195 21.6958Z" fill="white"></path>
  <path d="M36.5742 21.6958C36.5742 22.3084 36.0854 22.8037 35.4858 22.8037C34.8832 22.8037 34.3966 22.3084 34.3966 21.6958C34.3966 21.0846 34.8832 20.5886 35.4858 20.5886C36.0854 20.5886 36.5742 21.0846 36.5742 21.6958Z" fill="white"></path>
  <path d="M23.1356 35.3382C17.1448 36.8129 11.1445 40.006 6.54265 44.1883C6.22385 44.4779 6.62217 44.9234 6.96212 44.6918C9.52639 42.9385 11.9944 41.0806 14.7257 39.5924C17.4519 38.1058 20.3094 37.0038 23.2684 36.1015C23.7265 35.9619 23.6215 35.2186 23.1356 35.3382Z" fill="white"></path>
  <path d="M23.2919 37.5129C20.7232 37.7134 18.504 39.2126 16.5788 40.8612C14.5391 42.6085 12.5862 44.6669 11.1016 46.9259C10.9331 47.1836 11.2759 47.5378 11.5101 47.3046C15.0162 43.807 18.2071 39.0515 23.3998 38.1374C23.8018 38.0661 23.6844 37.4824 23.2919 37.5129Z" fill="white"></path>
  <path d="M23.7285 39.6303C21.2517 40.2704 19.3521 42.0637 17.7333 44.0019C15.9605 46.1242 14.3775 48.5339 13.2547 51.0772C13.1227 51.3757 13.5641 51.5948 13.7435 51.3379C16.5821 47.2625 18.9625 42.031 23.9167 40.2288C24.245 40.1092 24.0684 39.5426 23.7285 39.6303Z" fill="white"></path>
  <path d="M31.583 36.0835C34.6098 37.0066 37.544 38.1264 40.3264 39.6628C43.0132 41.1457 45.4461 42.9814 47.9768 44.7101C48.3321 44.953 48.6524 44.4458 48.3482 44.1695C43.777 40.0185 37.7993 36.8224 31.8471 35.3565C31.3824 35.2414 31.1052 35.938 31.583 36.0835Z" fill="white"></path>
  <path d="M31.5414 38.1412C36.7057 39.0501 39.8886 43.793 43.3757 47.2727C43.6332 47.5304 43.9987 47.2081 43.8003 46.9059C42.3062 44.6366 40.3562 42.5974 38.3077 40.8382C36.3861 39.1875 34.1662 37.7097 31.6005 37.51C31.1956 37.4788 31.1511 38.0729 31.5414 38.1412Z" fill="white"></path>
  <path d="M31.0255 40.2406C35.9665 42.0399 38.3608 47.2937 41.1899 51.3601C41.3759 51.6281 41.7786 51.3393 41.6531 51.0548C40.5574 48.5716 39.0042 46.2139 37.2899 44.1273C35.6776 42.1646 33.7371 40.2911 31.2414 39.6465C30.8613 39.5477 30.6403 40.1002 31.0255 40.2406Z" fill="white"></path>
  <path d="M18.918 9.68497C18.918 10.9199 18.1308 11.9209 17.1606 11.9209C16.1903 11.9209 15.4017 10.9199 15.4017 9.68497C15.4017 8.44783 16.1903 7.44682 17.1606 7.44682C18.1308 7.44682 18.918 8.44783 18.918 9.68497Z" fill="white"></path>
  <path d="M16.5488 13.9825C16.5488 14.8068 15.8937 15.4736 15.0847 15.4736C14.2756 15.4736 13.6191 14.8068 13.6191 13.9825C13.6191 13.1597 14.2756 12.4922 15.0847 12.4922C15.8937 12.4922 16.5488 13.1597 16.5488 13.9825Z" fill="white"></path>
  <path d="M23.2235 9.12164C22.9288 10.0642 22.3152 10.7066 21.8521 10.557C21.3902 10.4062 21.2531 9.52283 21.5477 8.58027C21.8414 7.6382 22.4555 6.99672 22.917 7.14659C23.3803 7.29549 23.5158 8.18146 23.2235 9.12164Z" fill="white"></path>
  <path d="M21.0098 14.4414C21.0098 14.9367 20.5516 15.3369 19.9841 15.3369C19.4172 15.3369 18.9591 14.9367 18.9591 14.4414C18.9591 13.9468 19.4172 13.5465 19.9841 13.5465C20.5516 13.5465 21.0098 13.9468 21.0098 14.4414Z" fill="white"></path>
  <path d="M42.6237 31.5192C42.2626 32.2561 42.5557 33.1501 43.2803 33.5181C44.0055 33.8864 44.8842 33.5874 45.2453 32.8505C45.6065 32.1119 45.3114 31.2169 44.5875 30.8509C43.8645 30.4812 42.9846 30.7813 42.6237 31.5192Z" fill="white"></path>
  <path d="M42.9665 27.709C42.8163 28.6855 43.0836 29.5398 43.5623 29.6154C44.0438 29.6914 44.5525 28.9622 44.7042 27.986C44.8536 27.0101 44.5869 26.1566 44.1053 26.0806C43.6269 26.0036 43.1159 26.7331 42.9665 27.709Z" fill="white"></path>
  <path d="M40.2719 29.9748C40.0546 30.418 40.29 30.984 40.7962 31.242C41.3037 31.4989 41.8905 31.3497 42.1068 30.9068C42.3241 30.4653 42.0877 29.8979 41.5818 29.641C41.0756 29.383 40.4875 29.5333 40.2719 29.9748Z" fill="white"></path>
  <path d="M67.2098 27.2189V14.3384C67.2098 13.5585 66.8148 13.1673 66.0249 13.1673C65.2349 13.1673 64.8411 13.5585 64.8411 14.3384V27.2189C64.8411 28.0013 65.2349 28.3912 66.0249 28.3912C66.8148 28.3912 67.2098 28.0013 67.2098 27.2189ZM73.069 28.4444C73.069 30.0623 72.5005 31.4372 71.3662 32.5716C70.2318 33.7059 68.8569 34.2719 67.2402 34.2719H66.04C65.2399 34.2719 64.8411 34.6618 64.8411 35.4391V40.1082C64.8411 40.7615 64.6145 41.3134 64.1651 41.7654C63.7144 42.2174 63.1637 42.4427 62.5104 42.4427H61.3444C60.6911 42.4427 60.1392 42.2161 59.6897 41.7629C59.2378 41.3097 59.0137 40.7539 59.0137 40.0968V13.1331C59.0137 11.5177 59.5846 10.1415 60.7291 9.00719C61.8723 7.87284 63.2611 7.30566 64.8892 7.30566H67.2402C68.8569 7.30566 70.2318 7.87284 71.3662 9.00719C72.5005 10.1415 73.069 11.5177 73.069 13.1331V28.4444Z" fill="white"></path>
  <path d="M84.5412 35.4151C84.5412 34.6352 84.1513 34.2453 83.3701 34.2453C82.589 34.2453 82.1991 34.6352 82.1991 35.4151C82.1991 36.1975 82.589 36.5874 83.3701 36.5874C84.1513 36.5874 84.5412 36.1975 84.5412 35.4151ZM90.399 36.614C90.399 38.232 89.8306 39.6081 88.6962 40.7412C87.5632 41.8756 86.1883 42.4427 84.5703 42.4427H82.1712C80.5558 42.4427 79.1796 41.8756 78.0453 40.7412C76.9122 39.6081 76.3438 38.232 76.3438 36.614V34.2719C76.3438 32.6564 76.9122 31.2803 78.0453 30.1459C79.1796 29.0115 80.5558 28.4444 82.1712 28.4444H83.3562C84.1462 28.4444 84.5412 28.0519 84.5412 27.267V14.3105C84.5412 13.5256 84.1513 13.1331 83.3701 13.1331C82.589 13.1331 82.1991 13.5243 82.1991 14.3067V23.7006C82.1991 24.3577 81.9724 24.9147 81.5205 25.3679C81.066 25.8212 80.5115 26.0491 79.8569 26.0491H78.6871C78.0301 26.0491 77.4756 25.8224 77.0236 25.3692C76.5691 24.9172 76.3438 24.3627 76.3438 23.7057V13.1623C76.3438 11.5392 76.9122 10.1567 78.0453 9.01606C79.1796 7.87664 80.5558 7.30566 82.1712 7.30566H84.5703C86.1883 7.30566 87.5632 7.8779 88.6962 9.01732C89.8306 10.158 90.399 11.543 90.399 13.1673V36.614Z" fill="white"></path>
  <path d="M107.728 23.7057C107.728 24.3627 107.502 24.9172 107.053 25.3692C106.602 25.8225 106.052 26.0491 105.398 26.0491H104.232C103.579 26.0491 103.027 25.8212 102.578 25.3679C102.126 24.9147 101.9 24.3577 101.9 23.7006V14.3067C101.9 13.5243 101.502 13.1331 100.701 13.1331C99.9013 13.1331 99.5013 13.5243 99.5013 14.3055V40.0968C99.5013 40.7539 99.2759 41.3097 98.8252 41.7629C98.3745 42.2161 97.8238 42.4427 97.1706 42.4427H96.0046C95.3513 42.4427 94.7993 42.2161 94.3511 41.7629C93.8992 41.3097 93.6738 40.7564 93.6738 40.0993V13.161C93.6738 11.538 94.2435 10.1555 95.3829 9.01605C96.5236 7.87664 97.9048 7.30566 99.5304 7.30566H101.873C103.497 7.30566 104.878 7.87664 106.017 9.01605C107.159 10.1567 107.728 11.5392 107.728 13.1623V23.7057Z" fill="white"></path>
  <path d="M119.199 35.4151V14.3384C119.199 13.5585 118.804 13.1673 118.014 13.1673C117.224 13.1673 116.831 13.5585 116.831 14.3384V35.4151C116.831 36.1975 117.224 36.5874 118.014 36.5874C118.804 36.5874 119.199 36.1975 119.199 35.4151ZM125.057 36.614C125.057 38.232 124.49 39.6081 123.357 40.7412C122.221 41.8756 120.845 42.4427 119.23 42.4427H113.354C112.695 42.4427 112.139 42.2161 111.683 41.7629C111.23 41.3097 111.002 40.7564 111.002 40.0993V9.6478C111.002 8.992 111.23 8.43875 111.683 7.98425C112.139 7.53228 112.695 7.30566 113.354 7.30566H119.23C120.845 7.30566 122.221 7.87284 123.357 9.00719C124.49 10.1415 125.057 11.5177 125.057 13.1331V36.614Z" fill="white"></path>
  <path d="M142.389 36.614C142.389 38.2307 141.82 39.6069 140.686 40.7412C139.553 41.8756 138.177 42.4427 136.56 42.4427H134.161C132.544 42.4427 131.169 41.8756 130.035 40.7412C128.9 39.6069 128.332 38.2307 128.332 36.614V9.65033C128.332 8.99327 128.56 8.43875 129.013 7.98552C129.465 7.53228 130.018 7.30566 130.675 7.30566H131.848C132.501 7.30566 133.057 7.53228 133.509 7.98425C133.962 8.43875 134.187 8.992 134.187 9.6478V35.4151C134.187 36.1962 134.579 36.5874 135.36 36.5874C136.14 36.5874 136.531 36.1962 136.531 35.4151V9.6478C136.531 8.992 136.756 8.43875 137.209 7.98425C137.664 7.53228 138.217 7.30566 138.874 7.30566H140.044C140.701 7.30566 141.254 7.53228 141.709 7.98552C142.162 8.43875 142.389 8.99327 142.389 9.65033V36.614Z" fill="white"></path>
  <path d="M159.719 36.615C159.719 38.2317 159.152 39.6078 158.018 40.7422C156.883 41.8765 155.509 42.4437 153.891 42.4437H148.016C147.355 42.4437 146.801 42.2171 146.346 41.7626C145.891 41.3106 145.664 40.7561 145.664 40.1003V38.9305C145.664 38.2747 145.889 37.7202 146.345 37.267C146.797 36.8137 147.35 36.5884 148.007 36.5884H152.69C153.469 36.5884 153.861 36.2022 153.861 35.4287C153.861 34.659 153.467 34.2728 152.678 34.2728H151.493C149.876 34.2728 148.501 33.7057 147.367 32.5713C146.231 31.4382 145.664 30.0621 145.664 28.4454V13.1341C145.664 11.5187 146.231 10.1425 147.367 9.00817C148.501 7.87382 149.876 7.30664 151.493 7.30664H153.891C155.509 7.30664 156.883 7.87382 158.018 9.00817C159.152 10.1425 159.719 11.5187 159.719 13.1341V23.7003C159.719 24.3586 159.493 24.9144 159.041 25.3689C158.586 25.8222 158.033 26.05 157.376 26.05H156.205C155.549 26.05 154.995 25.8234 154.54 25.3702C154.087 24.917 153.861 24.3624 153.861 23.7066V14.3394C153.861 13.5595 153.472 13.167 152.692 13.167C151.909 13.167 151.519 13.5595 151.519 14.3394V27.2198C151.519 28.001 151.916 28.3909 152.707 28.3909H153.891C155.509 28.3909 156.883 28.9632 158.018 30.1064C159.152 31.2496 159.719 32.6359 159.719 34.2665V36.615Z" fill="white"></path>
</svg>