<?xml version="1.0" encoding="UTF-8"?>
<svg version="1.1" xmlns="http://www.w3.org/2000/svg" viewBox="96 191 218 228">
<path d="M0 0 C1.22374976 0.55671809 2.44907887 1.10997465 3.67578125 1.66015625 C4.3095166 1.9452002 4.94325195 2.23024414 5.59619141 2.52392578 C8.91123827 3.95877224 12.29676499 5.19477128 15.6875 6.4375 C21.47306638 8.57311175 27.20084679 10.80036291 32.87109375 13.23046875 C34.62045224 13.97439043 36.38343003 14.68732376 38.16015625 15.36328125 C43.39864456 17.43312297 45.87619152 19.20136886 48.5625 24.375 C48.87445313 24.93832031 49.18640625 25.50164062 49.5078125 26.08203125 C57.5625 41.1449311 57.5625 41.1449311 57.5625 47.375 C60.5325 47.87 60.5325 47.87 63.5625 48.375 C63.5625 49.035 63.5625 49.695 63.5625 50.375 C64.1827002 50.62233887 64.80290039 50.86967773 65.44189453 51.12451172 C68.01102725 52.63948959 68.44487075 53.62970839 69.4921875 56.3828125 C69.80986084 57.1975 70.12753418 58.0121875 70.45483398 58.8515625 C70.77911377 59.72554688 71.10339355 60.59953125 71.4375 61.5 C71.78047119 62.39203125 72.12344238 63.2840625 72.47680664 64.203125 C73.51852451 66.9222919 74.54105792 69.64816342 75.5625 72.375 C76.16674153 73.95619869 76.77213324 75.53695852 77.37890625 77.1171875 C81.43750441 87.75408695 81.43750441 87.75408695 82.04296875 90.76171875 C82.30013672 91.56029297 82.30013672 91.56029297 82.5625 92.375 C83.51125 92.643125 84.46 92.91125 85.4375 93.1875 C88.5625 94.375 88.5625 94.375 90.15234375 97.34375 C91.88765285 101.80426765 92.6063052 106.33810618 93.25 111.0625 C93.44106323 112.41734497 93.44106323 112.41734497 93.63598633 113.79956055 C94.86718725 123.32960065 94.84059201 132.78597552 94.5625 142.375 C92.5825 143.365 92.5825 143.365 90.5625 144.375 C90.5625 145.035 90.5625 145.695 90.5625 146.375 C87.1605513 148.46850689 84.50977588 148.55442163 80.5625 148.375 C80.41554688 148.92285156 80.26859375 149.47070312 80.1171875 150.03515625 C78.03114341 157.4082431 75.23951199 164.44524638 72.32226562 171.51757812 C71.6006952 173.28162304 70.90126916 175.05467834 70.203125 176.828125 C69.78546875 177.87484375 69.3678125 178.9215625 68.9375 180 C68.57398438 180.92039062 68.21046875 181.84078125 67.8359375 182.7890625 C64.88571096 188.78001332 61.11544155 191.56416123 55.1875 194.375 C54.48069092 194.71966309 53.77388184 195.06432617 53.0456543 195.41943359 C47.47595038 198.07748896 41.78795196 200.18470224 35.94140625 202.16015625 C31.44906078 203.77532323 27.18708252 205.77409854 22.890625 207.84765625 C21.79234375 208.35167969 20.6940625 208.85570312 19.5625 209.375 C18.91410156 209.71845459 18.26570312 210.06190918 17.59765625 210.41577148 C9.12623687 214.46284264 0.2683899 214.29111034 -8.9375 214.3125 C-9.79833191 214.31857269 -10.65916382 214.32464539 -11.54608154 214.3309021 C-27.08687643 214.34189735 -38.77475245 211.20744082 -52.57275391 203.81079102 C-56.78297508 201.70065716 -61.15074216 200.09129274 -65.56640625 198.46582031 C-69.34768823 197.02919039 -72.88302278 195.29316502 -76.4375 193.375 C-77.37722656 192.91673828 -77.37722656 192.91673828 -78.3359375 192.44921875 C-85.41307914 188.82106386 -87.85225275 182.95797389 -90.375 175.75 C-90.88742424 174.331344 -91.40176767 172.91337985 -91.91796875 171.49609375 C-92.1711084 170.79983887 -92.42424805 170.10358398 -92.68505859 169.38623047 C-93.76795514 166.49171336 -94.97285813 163.65383038 -96.1875 160.8125 C-97.93003184 156.70550374 -99.35590751 152.70136998 -100.4375 148.375 C-101.345 148.41625 -102.2525 148.4575 -103.1875 148.5 C-106.3157046 148.37968444 -107.82364006 147.9835292 -110.4375 146.375 C-110.4375 145.715 -110.4375 145.055 -110.4375 144.375 C-111.4275 144.045 -112.4175 143.715 -113.4375 143.375 C-117.8804367 134.4891266 -114.04239492 118.77964236 -112.6875 109.5 C-112.45220581 107.7974707 -112.45220581 107.7974707 -112.2121582 106.06054688 C-112.04417725 104.99126953 -111.87619629 103.92199219 -111.703125 102.8203125 C-111.48317871 101.38969482 -111.48317871 101.38969482 -111.25878906 99.93017578 C-110.26245803 96.83041341 -108.93197253 95.42815644 -106.4375 93.375 C-105.72335938 93.20226562 -105.00921875 93.02953125 -104.2734375 92.8515625 C-103.66757813 92.69429688 -103.06171875 92.53703125 -102.4375 92.375 C-101.6751852 90.36526097 -100.94281866 88.34049573 -100.33984375 86.27734375 C-99.07873265 82.22104269 -97.45038867 78.33284279 -95.84472656 74.40258789 C-94.44596141 70.95427909 -93.10537932 67.49752329 -91.85546875 63.9921875 C-91.59677002 63.27297119 -91.33807129 62.55375488 -91.0715332 61.81274414 C-90.57762236 60.42982555 -90.09258994 59.04369302 -89.61791992 57.65405273 C-88.19701942 53.69881818 -86.76469924 50.98922798 -83.4375 48.375 C-80.1875 47.625 -80.1875 47.625 -77.4375 47.375 C-77.26734375 46.84132812 -77.0971875 46.30765625 -76.921875 45.7578125 C-69.44944948 22.78407873 -69.44944948 22.78407873 -60.4375 16.375 C-57.7734375 15.171875 -57.7734375 15.171875 -54.8125 14.125 C-49.15748613 12.04595078 -43.6064616 9.79649068 -38.0625 7.4375 C-36.43505427 6.75092641 -34.80745075 6.06472672 -33.1796875 5.37890625 C-30.86226078 4.40163847 -28.54628766 3.42172321 -26.23535156 2.42919922 C-24.2239798 1.56644872 -22.20671061 0.71920571 -20.1875 -0.125 C-19.04796875 -0.6096875 -17.9084375 -1.094375 -16.734375 -1.59375 C-10.37834376 -3.58189247 -5.93829352 -2.78023346 0 0 Z " fill="#0C0907" transform="translate(214.4375,199.625)"/>
<path d="M0 0 C1.97862864 0.00138269 1.97862864 0.00138269 3.99722958 0.00279331 C5.09494502 0.00151167 5.09494502 0.00151167 6.21483654 0.00020415 C8.68545163 -0.00145283 11.15599994 0.00407424 13.62660885 0.00952244 C15.39028071 0.00980429 17.15395268 0.00964662 18.91762447 0.00907993 C23.72114126 0.00879188 28.5246333 0.0146899 33.32814431 0.02165389 C38.34233969 0.02788609 43.35653557 0.02849112 48.37073421 0.0296793 C57.87281044 0.03279301 67.37487522 0.04100693 76.87694639 0.05102879 C87.69175622 0.06218869 98.50656658 0.06770006 109.32138073 0.07272422 C131.57474117 0.08318952 153.82809128 0.10078973 176.08144283 0.12304783 C177.68510549 3.9558251 178.5045971 7.27167153 178.96816158 11.41211033 C179.16828854 13.19488377 179.16828854 13.19488377 179.37245846 15.01367283 C179.5032983 16.24601658 179.63413815 17.47836033 179.76894283 18.74804783 C179.91138424 19.98812595 180.05382565 21.22820408 180.20058346 22.50586033 C181.20926659 31.73957656 181.20926659 31.73957656 180.08144283 35.12304783 C179.15919918 35.20868992 178.23695553 35.29433201 177.2867651 35.38256931 C173.82576727 35.70435585 170.36483863 36.02686859 166.9039526 36.34985447 C165.41341931 36.48881204 163.92285994 36.62749017 162.43227291 36.76587009 C160.27489362 36.96620334 158.11760753 37.16751145 155.96034908 37.36914158 C155.25862072 37.43431477 154.55689236 37.49948795 153.8338995 37.56663609 C150.29403431 37.8992195 146.76524863 38.27344382 143.23769283 38.71679783 C138.17090364 39.2986504 133.11242898 39.23162669 128.01894283 39.18554783 C126.57744869 39.17878025 126.57744869 39.17878025 125.10683346 39.17187595 C122.76496862 39.16022488 120.42324102 39.14386808 118.08144283 39.12304783 C117.89968502 38.27420017 117.89968502 38.27420017 117.71425533 37.40820408 C117.54667721 36.67472752 117.37909908 35.94125095 117.20644283 35.18554783 C117.04402096 34.45464939 116.88159908 33.72375095 116.71425533 32.97070408 C116.2518276 30.91604489 116.2518276 30.91604489 114.08144283 30.12304783 C112.34107634 30.0171618 110.59671221 29.97426989 108.85317135 29.96191502 C107.76186413 29.95230747 106.67055691 29.94269993 105.54617977 29.93280125 C103.77119358 29.92642643 103.77119358 29.92642643 101.96034908 29.91992283 C100.14409275 29.91137272 100.14409275 29.91137272 98.29114437 29.90264988 C95.72637973 29.8931908 93.16160289 29.88666231 90.59682369 29.88281345 C86.66374822 29.87309676 82.73119268 29.84207648 78.79823971 29.81054783 C76.31061261 29.80401918 73.82298177 29.79876816 71.33534908 29.79492283 C70.15404919 29.78257603 68.97274929 29.77022923 67.75565243 29.75750828 C66.66119305 29.76050938 65.56673367 29.76351048 64.43910885 29.76660252 C63.474734 29.76295689 62.51035915 29.75931126 61.51676083 29.75555515 C59.04458518 29.93461812 59.04458518 29.93461812 57.28955746 31.44610691 C55.552538 33.85720181 55.40458188 36.21479643 55.08144283 39.12304783 C41.87740424 39.53711176 28.85595371 38.86506376 15.70644283 37.74804783 C14.93641933 37.68483341 14.16639584 37.621619 13.37303829 37.55648899 C11.14218147 37.37111625 8.91256455 37.17493518 6.68300533 36.97461033 C5.38701412 36.85940037 4.09102291 36.74419041 2.75575924 36.62548923 C-1.00124664 36.11174052 -4.30910092 35.25278724 -7.91855717 34.12304783 C-7.37270252 29.44098813 -6.82124467 24.75963618 -6.26450443 20.07885838 C-6.07577337 18.48529196 -5.88859485 16.89154088 -5.702981 15.29760838 C-5.43644177 13.01105718 -5.16438822 10.72522078 -4.89121342 8.43945408 C-4.80887959 7.72278065 -4.72654575 7.00610722 -4.64171696 6.26771641 C-3.90255043 0.16453348 -3.90255043 0.16453348 0 0 Z " fill="#F9C450" transform="translate(117.91855716705322,301.8769521713257)"/>
<path d="M0 0 C1.11749634 -0.00852997 2.23499268 -0.01705994 3.38635254 -0.02584839 C4.61809708 -0.02494202 5.84984161 -0.02403564 7.11891174 -0.02310181 C8.4116098 -0.02981903 9.70430786 -0.03653625 11.03617859 -0.04345703 C14.58782004 -0.06115692 18.13936519 -0.06581406 21.69104648 -0.0670886 C24.65338573 -0.06898533 27.61570244 -0.07634019 30.57803303 -0.08343279 C37.56546642 -0.09972931 44.55284826 -0.10460058 51.54029846 -0.10317993 C58.75447821 -0.10197797 65.96835903 -0.12308752 73.18246311 -0.15466726 C79.37104849 -0.18079499 85.55953602 -0.19154872 91.74817616 -0.19026911 C95.44667977 -0.18975846 99.14491782 -0.19549786 102.84336662 -0.21662521 C106.96667382 -0.23953572 111.08930875 -0.23050832 115.21266174 -0.21841431 C116.44238205 -0.22965332 117.67210236 -0.24089233 118.93908691 -0.25247192 C120.61956116 -0.23988846 120.61956116 -0.23988846 122.33398438 -0.22705078 C123.30940909 -0.22814032 124.28483381 -0.22922985 125.28981686 -0.2303524 C127.73048401 0.26742554 127.73048401 0.26742554 129.48336887 2.11227989 C131.08614108 4.88203823 132.25927134 7.69843661 133.42970276 10.67758179 C133.78957024 11.59065346 133.78957024 11.59065346 134.15670776 12.52217102 C134.65964863 13.80269674 135.15953139 15.08442735 135.6565094 16.36727905 C136.41811978 18.33027547 137.19172704 20.28823177 137.96681213 22.24594116 C138.45516365 23.49370597 138.94281817 24.74174384 139.42970276 25.99008179 C139.87144836 27.12195923 140.31319397 28.25383667 140.76832581 29.42001343 C141.73048401 32.26742554 141.73048401 32.26742554 141.73048401 35.26742554 C88.60048401 35.26742554 35.47048401 35.26742554 -19.26951599 35.26742554 C-18.43130087 31.07634993 -17.37803111 27.67356839 -15.83592224 23.72445679 C-15.59792404 23.11478561 -15.35992584 22.50511444 -15.11471558 21.87696838 C-14.61331019 20.59622615 -14.10977872 19.31631443 -13.60423279 18.03720093 C-12.83133706 16.0782047 -12.06862826 14.11544612 -11.30662537 12.15219116 C-10.81700001 10.90520707 -10.32678602 9.65845391 -9.83592224 8.41195679 C-9.39192078 7.28120728 -8.94791931 6.15045776 -8.49046326 4.98544312 C-6.39519053 0.32104175 -4.87371077 0.01675319 0 0 Z " fill="#F9C551" transform="translate(143.26951599121094,256.7325744628906)"/>
<path d="M0 0 C5.22884197 0.26339745 10.45750502 0.53004375 15.68603516 0.79956055 C17.46073034 0.89059948 19.23546946 0.98078654 21.01025391 1.07006836 C39.15955016 1.98417191 39.15955016 1.98417191 48 3 C48.01458252 3.83249268 48.02916504 4.66498535 48.04418945 5.52270508 C48.1052863 8.61489653 48.17944556 11.70642082 48.26245117 14.7980957 C48.31201319 16.7929063 48.34651133 18.78807257 48.38085938 20.78320312 C48.41630859 22.03681641 48.45175781 23.29042969 48.48828125 24.58203125 C48.51446533 25.73936768 48.54064941 26.8967041 48.56762695 28.08911133 C49.05502858 31.37047189 49.39681289 32.06604872 52 34 C54.49854667 34.45517538 54.49854667 34.45517538 57.34179688 34.38818359 C58.43302856 34.39764008 59.52426025 34.40709656 60.64855957 34.4168396 C62.41580383 34.40773056 62.41580383 34.40773056 64.21875 34.3984375 C65.42817261 34.40130768 66.63759521 34.40417786 67.88366699 34.40713501 C70.44246895 34.40917786 73.00128645 34.40363268 75.56005859 34.39111328 C79.48440354 34.37506379 83.40771847 34.39095562 87.33203125 34.41015625 C89.81510645 34.40817386 92.298181 34.40433027 94.78125 34.3984375 C95.95941284 34.40451019 97.13757568 34.41058289 98.35144043 34.4168396 C99.44267212 34.40738312 100.53390381 34.39792664 101.65820312 34.38818359 C102.61956177 34.38579681 103.58092041 34.38341003 104.57141113 34.38095093 C107.04173075 34.18619971 107.04173075 34.18619971 108.80683899 32.65766907 C110.66845656 30.07130744 110.44054443 27.72793638 110.51171875 24.58203125 C110.56489258 22.70161133 110.56489258 22.70161133 110.61914062 20.78320312 C110.64169922 19.47287109 110.66425781 18.16253906 110.6875 16.8125 C110.72067666 15.47717987 110.75516666 14.14189168 110.79101562 12.80664062 C110.87362057 9.53784496 110.94273229 6.26932188 111 3 C144.70817254 0.61223194 144.70817254 0.61223194 158 1 C157.02356595 4.34069544 156.01918667 7.67210017 155 11 C154.57944336 12.37357666 154.57944336 12.37357666 154.15039062 13.77490234 C148.79071249 30.54312274 148.79071249 30.54312274 143.09375 35.55859375 C139.97030578 37.02179601 136.96949303 38.11068183 133.67871094 39.10791016 C130.30019907 40.23305438 127.03530428 41.59463363 123.7578125 42.98046875 C123.11408691 43.25246094 122.47036133 43.52445312 121.80712891 43.8046875 C120.48911981 44.36226904 119.1712905 44.92027574 117.8536377 45.47869873 C114.67951547 46.8162792 111.49233564 48.12074544 108.3046875 49.42578125 C107.21140137 49.87348877 106.11811523 50.32119629 104.99169922 50.7824707 C104.00443848 51.18425537 103.01717773 51.58604004 102 52 C101.19353027 52.36891357 100.38706055 52.73782715 99.55615234 53.11791992 C79.22118424 60.1351348 55.61266488 53.44800597 37.20980835 44.5776062 C35.35102053 43.66353832 33.50448103 42.72761777 31.65771484 41.78955078 C29.15855061 40.53554634 26.6415631 39.41092937 24.04931641 38.36279297 C23.40896454 38.10309723 22.76861267 37.84340149 22.1088562 37.57583618 C20.3478661 36.87339543 18.57989826 36.18851987 16.81152344 35.50488281 C11.637073 32.73523081 10.71967302 28.32279743 9 23 C7.98094603 20.40020046 6.92418121 17.81729751 5.86669922 15.23291016 C4.78608466 12.58831038 3.72361827 9.9374514 2.671875 7.28125 C2.22473145 6.15299805 2.22473145 6.15299805 1.76855469 5.00195312 C1.13473707 3.35096696 0.55923878 1.67771633 0 0 Z " fill="#F7C452" transform="translate(125,348)"/>
<path d="M0 0 C1.33952728 0.5567617 1.33952728 0.5567617 2.70611572 1.12477112 C4.58350593 1.90691436 6.45927761 2.69295272 8.33349609 3.48266602 C11.2043977 4.69194233 14.08018182 5.88893631 16.95703125 7.08398438 C18.78415111 7.84694552 20.6109843 8.61059364 22.4375 9.375 C23.29688171 9.73339462 24.15626343 10.09178925 25.04168701 10.46104431 C25.83971741 10.79801834 26.6377478 11.13499237 27.45996094 11.48217773 C28.16054626 11.77672348 28.86113159 12.07126923 29.58294678 12.3747406 C33.31591202 14.12959732 34.88283347 15.62523418 36.49609375 19.31640625 C37.02299805 20.51136719 37.02299805 20.51136719 37.56054688 21.73046875 C37.91697266 22.56320313 38.27339844 23.3959375 38.640625 24.25390625 C39.19266602 25.50300781 39.19266602 25.50300781 39.75585938 26.77734375 C42.453125 32.96253913 42.453125 32.96253913 42.453125 35.25390625 C5.163125 35.25390625 -32.126875 35.25390625 -70.546875 35.25390625 C-69.01715874 30.66475747 -67.46624568 26.15237026 -65.609375 21.69140625 C-65.26036133 20.72170898 -65.26036133 20.72170898 -64.90429688 19.73242188 C-62.55605673 14.24947635 -59.11361703 12.63122971 -53.71459961 10.45825195 C-52.66925049 10.06081787 -51.62390137 9.66338379 -50.546875 9.25390625 C-48.30100144 8.32683535 -46.05624382 7.39705732 -43.8125 6.46484375 C-41.47488824 5.51723406 -39.13633478 4.5719443 -36.796875 3.62890625 C-34.44768415 2.67896022 -32.09871892 1.72845602 -29.75 0.77734375 C-28.66138672 0.34131836 -27.57277344 -0.09470703 -26.45117188 -0.54394531 C-24.13273525 -1.5035941 -21.90582616 -2.53980628 -19.65625 -3.64453125 C-12.80341622 -6.07229397 -6.32595265 -2.67829595 0 0 Z " fill="#F9C451" transform="translate(218.546875,212.74609375)"/>
<path d="M0 0 C1.97862864 0.00138269 1.97862864 0.00138269 3.99722958 0.00279331 C5.09494502 0.00151167 5.09494502 0.00151167 6.21483654 0.00020415 C8.68545163 -0.00145283 11.15599994 0.00407424 13.62660885 0.00952244 C15.39028071 0.00980429 17.15395268 0.00964662 18.91762447 0.00907993 C23.72114126 0.00879188 28.5246333 0.0146899 33.32814431 0.02165389 C38.34233969 0.02788609 43.35653557 0.02849112 48.37073421 0.0296793 C57.87281044 0.03279301 67.37487522 0.04100693 76.87694639 0.05102879 C87.69175622 0.06218869 98.50656658 0.06770006 109.32138073 0.07272422 C131.57474117 0.08318952 153.82809128 0.10078973 176.08144283 0.12304783 C176.08144283 0.45304783 176.08144283 0.78304783 176.08144283 1.12304783 C126.91144283 1.12304783 77.74144283 1.12304783 27.08144283 1.12304783 C27.08144283 12.67304783 27.08144283 24.22304783 27.08144283 36.12304783 C22.60581783 36.16429783 18.13019283 36.20554783 13.51894283 36.24804783 C12.12087399 36.26625584 10.72280514 36.28446384 9.28237057 36.30322361 C7.60316525 36.31071629 7.60316525 36.31071629 5.89003658 36.31836033 C4.75364742 36.32883396 3.61725826 36.33930759 2.44643307 36.35009861 C-1.31614006 36.09622115 -4.3388422 35.27317304 -7.91855717 34.12304783 C-7.37270252 29.44098813 -6.82124467 24.75963618 -6.26450443 20.07885838 C-6.07577337 18.48529196 -5.88859485 16.89154088 -5.702981 15.29760838 C-5.43644177 13.01105718 -5.16438822 10.72522078 -4.89121342 8.43945408 C-4.80887959 7.72278065 -4.72654575 7.00610722 -4.64171696 6.26771641 C-3.90255043 0.16453348 -3.90255043 0.16453348 0 0 Z " fill="#DAA22D" transform="translate(117.91855716705322,301.8769521713257)"/>
<path d="M0 0 C12.54 0.66 25.08 1.32 38 2 C38 2.33 38 2.66 38 3 C32.06 3.495 32.06 3.495 26 4 C31.7685176 18.50869579 38.70809074 31.66721167 49 43.5 C51 46 51 46 51 49 C43.77162806 46.68441765 36.66802499 44.10259251 29.6328125 41.25097656 C28.37626695 40.74979216 27.11370892 40.26343024 25.84570312 39.79199219 C13.95150983 35.35468478 13.95150983 35.35468478 10.90625 28.75 C10.23647619 26.84506733 9.60057947 24.92786663 9 23 C8.27922643 21.21320296 7.54510188 19.43172592 6.796875 17.65625 C6.11188085 15.93857527 5.42956763 14.21982886 4.75 12.5 C4.399375 11.62085938 4.04875 10.74171875 3.6875 9.8359375 C2.39002566 6.5722905 1.1108746 3.33262381 0 0 Z " fill="#E0A326" transform="translate(125,348)"/>
<path d="M0 0 C1.46841622 0.00276538 1.46841622 0.00276538 2.96649742 0.00558662 C4.64924515 0.00146263 4.64924515 0.00146263 6.36598778 -0.00274467 C7.60244545 0.00444588 8.83890312 0.01163643 10.11282921 0.01904488 C12.05910461 0.0186068 12.05910461 0.0186068 14.04469872 0.01815987 C17.60857124 0.01758465 21.17230988 0.0293661 24.73615122 0.04330778 C28.4584139 0.05578715 32.18067945 0.05698343 35.90295982 0.0593586 C42.954242 0.0655816 50.00546236 0.08200348 57.05671728 0.10205758 C65.08320443 0.12439109 73.10969449 0.13540358 81.13620496 0.14544845 C97.64977088 0.16636903 114.16327458 0.20156089 130.67679405 0.24609566 C130.67679405 0.57609566 130.67679405 0.90609566 130.67679405 1.24609566 C130.13326381 1.24664042 129.58973356 1.24718519 129.0297327 1.24774647 C115.80970519 1.26270813 102.59001944 1.3054467 89.37017918 1.37818623 C82.97713756 1.41251983 76.58433654 1.43757615 70.19119835 1.4416523 C64.02480086 1.44592152 57.85894669 1.47427027 51.69271851 1.51952744 C49.33676184 1.53254648 46.9807403 1.53679465 44.62475204 1.53224945 C41.33184616 1.52737494 38.04054765 1.55329734 34.74783897 1.58667183 C33.27725029 1.57373337 33.27725029 1.57373337 31.77695274 1.56053352 C29.30430489 1.60272049 27.07984511 1.66175216 24.67679405 2.24609566 C22.60099959 4.63443501 22.60099959 4.63443501 21.67679405 7.24609566 C21.01679405 7.24609566 20.35679405 7.24609566 19.67679405 7.24609566 C19.40737999 8.10590034 19.13796593 8.96570503 18.8603878 9.85156441 C17.30410452 14.31496433 15.25868116 18.47864242 13.2119503 22.73437691 C11.43506438 26.79905998 10.07961165 31.03764287 8.67679405 35.24609566 C0.42679405 35.24609566 -7.82320595 35.24609566 -16.32320595 35.24609566 C-15.48499083 31.05502005 -14.43172106 27.65223851 -12.8896122 23.70312691 C-12.651614 23.09345573 -12.4136158 22.48378456 -12.16840553 21.8556385 C-11.66700014 20.57489627 -11.16346868 19.29498455 -10.65792274 18.01587105 C-9.88502701 16.05687482 -9.12231822 14.09411625 -8.36031532 12.13086128 C-7.87068997 10.88387719 -7.38047597 9.63712403 -6.8896122 8.39062691 C-6.44561073 7.2598774 -6.00160927 6.12912788 -5.54415321 4.96411324 C-3.47983274 0.36861636 -3.47983274 0.36861636 0 0 Z " fill="#D09929" transform="translate(140.32320594787598,256.75390434265137)"/>
<path d="M0 0 C0 0.99 0 1.98 0 3 C-1.64351457 4.36176922 -3.31522656 5.68962066 -5 7 C-9.00963102 11.37355214 -11.68042823 15.79808007 -14.25 21.125 C-14.600625 21.82753906 -14.95125 22.53007812 -15.3125 23.25390625 C-16.94315558 26.57166318 -18.09206914 29.36827654 -19 33 C10.37 33 39.74 33 70 33 C70 33.66 70 34.32 70 35 C32.71 35 -4.58 35 -43 35 C-41.47028374 30.41085122 -39.91937068 25.89846401 -38.0625 21.4375 C-37.71348633 20.46780273 -37.71348633 20.46780273 -37.35742188 19.47851562 C-34.9978758 13.96917171 -31.4991446 12.33856445 -26.07348633 10.1550293 C-25.05923584 9.77386963 -24.04498535 9.39270996 -23 9 C-21.99412842 8.59499268 -20.98825684 8.18998535 -19.9519043 7.77270508 C-16.91507242 6.55123082 -13.86666462 5.36489123 -10.8125 4.1875 C-9.76513672 3.78080078 -8.71777344 3.37410156 -7.63867188 2.95507812 C-5.09352353 1.96723516 -2.54730938 0.9822538 0 0 Z " fill="#D29B29" transform="translate(191,213)"/>
<path d="M0 0 C1.12101105 0.00007553 2.24202209 0.00015106 3.39700317 0.00022888 C4.61161224 0.00539017 5.82622131 0.01055145 7.07763672 0.01586914 C8.31778534 0.01728409 9.55793396 0.01869904 10.83566284 0.02015686 C14.13350555 0.02481443 17.43129968 0.033801 20.72912598 0.04486084 C24.09398808 0.05508808 27.4588573 0.0596573 30.82373047 0.06469727 C37.42661415 0.0757427 44.02946521 0.09249292 50.63232422 0.11352539 C50.30232422 1.10352539 49.97232422 2.09352539 49.63232422 3.11352539 C48.60875069 3.10353264 48.60875069 3.10353264 47.5644989 3.09333801 C40.47590842 3.0270771 33.38740561 2.98176319 26.29858398 2.94873047 C23.65141223 2.93362419 21.00426558 2.91313809 18.35717773 2.88720703 C14.5569032 2.85090548 10.75695896 2.83381736 6.95654297 2.82055664 C5.76896896 2.80507278 4.58139496 2.78958893 3.35783386 2.77363586 C2.2569191 2.77340927 1.15600433 2.77318268 0.02172852 2.77294922 C-0.94867874 2.76628738 -1.919086 2.75962555 -2.91889954 2.75276184 C-5.40302232 2.92291011 -5.40302232 2.92291011 -7.1615448 4.43559265 C-8.89544927 6.84774782 -9.04461864 9.20601116 -9.36767578 12.11352539 C-24.48552875 12.39698513 -39.32196184 11.59079094 -54.36767578 10.11352539 C-54.36767578 9.78352539 -54.36767578 9.45352539 -54.36767578 9.11352539 C-53.12155518 9.15541992 -51.87543457 9.19731445 -50.59155273 9.24047852 C-45.96083687 9.3854614 -41.33032049 9.4771817 -36.69799805 9.55297852 C-34.69472506 9.59317039 -32.69168618 9.64773644 -30.68920898 9.71704102 C-27.806705 9.81429245 -24.92730395 9.85949072 -22.04345703 9.89477539 C-21.15056473 9.93606567 -20.25767242 9.97735596 -19.33772278 10.01989746 C-16.77455017 10.02174018 -14.79452313 9.94751372 -12.36767578 9.11352539 C-10.59010996 7.16359777 -9.47258633 5.30050076 -8.3165741 2.93371582 C-6.46367461 -0.62054268 -3.63447588 -0.00814905 0 0 Z " fill="#DCB562" transform="translate(182.36767578125,328.886474609375)"/>
<path d="M0 0 C2.68300071 1.34150035 2.8437032 2.60687715 3.9453125 5.3671875 C4.29980469 6.25277344 4.65429688 7.13835937 5.01953125 8.05078125 C5.56673828 9.44876953 5.56673828 9.44876953 6.125 10.875 C6.49753906 11.79925781 6.87007812 12.72351563 7.25390625 13.67578125 C10 20.60639881 10 20.60639881 10 24 C-34.88 24 -79.76 24 -126 24 C-126 23.67 -126 23.34 -126 23 C-82.11 23 -38.22 23 7 23 C7 21.35 7 19.7 7 18 C6.34 18 5.68 18 5 18 C4.15875684 15.75267898 3.32685168 13.50261215 2.5 11.25 C2.26152344 10.61578125 2.02304687 9.9815625 1.77734375 9.328125 C0.55198242 5.96713393 0 3.63128413 0 0 Z " fill="#F1C96E" transform="translate(275,268)"/>
<path d="M0 0 C59.4 0.33 118.8 0.66 180 1 C180 1.33 180 1.66 180 2 C120.6 2.33 61.2 2.66 0 3 C0 2.01 0 1.02 0 0 Z " fill="#120500" transform="translate(114,300)"/>
<path d="M0 0 C12.54 0.66 25.08 1.32 38 2 C38 2.33 38 2.66 38 3 C28.76 3 19.52 3 10 3 C9.67 4.32 9.34 5.64 9 7 C8.01 7.33 7.02 7.66 6 8 C6.66 10.97 7.32 13.94 8 17 C8.66 17 9.32 17 10 17 C10 18.65 10 20.3 10 22 C10.66 22 11.32 22 12 22 C12.33 24.64 12.66 27.28 13 30 C11.13231285 27.19846927 9.93602011 24.66122426 8.65234375 21.5625 C8.21212891 20.50289063 7.77191406 19.44328125 7.31835938 18.3515625 C6.86267578 17.24554688 6.40699219 16.13953125 5.9375 15 C5.47794922 13.89398438 5.01839844 12.78796875 4.54492188 11.6484375 C1.15472274 3.46416823 1.15472274 3.46416823 0 0 Z " fill="#D7A337" transform="translate(125,348)"/>
<path d="M0 0 C3.25326479 3.16289633 6.36725392 6.29465367 9 10 C9 10.99 9 11.98 9 13 C1.08090444 10.54234965 -6.41985296 7.33181427 -14 4 C-14 3.01 -14 2.02 -14 1 C-13.113125 1.309375 -12.22625 1.61875 -11.3125 1.9375 C-8.53290845 2.8290671 -5.86863625 3.49377007 -3 4 C-3.33 3.34 -3.66 2.68 -4 2 C-3.01 1.67 -2.02 1.34 -1 1 C-0.67 0.67 -0.34 0.34 0 0 Z " fill="#DEA32F" transform="translate(167,384)"/>
<path d="M0 0 C-18.42692711 10.28649313 -35.55240524 10.05353558 -56 9 C-56 8.67 -56 8.34 -56 8 C-55.05680908 7.97494385 -54.11361816 7.9498877 -53.1418457 7.92407227 C-49.62871337 7.82870191 -46.11573292 7.72948275 -42.6027832 7.62768555 C-41.08492245 7.58448452 -39.56701774 7.54279952 -38.04907227 7.50268555 C-35.86200741 7.44462188 -33.67516082 7.38103344 -31.48828125 7.31640625 C-30.17384033 7.27974854 -28.85939941 7.24309082 -27.50512695 7.20532227 C-24.55300302 7.03239364 -21.87049504 6.67839286 -19 6 C-19 5.34 -19 4.68 -19 4 C-18.12988281 3.83564453 -18.12988281 3.83564453 -17.2421875 3.66796875 C-13.38808944 2.88570132 -10.21949489 2.11181815 -6.6875 0.3125 C-3.66515879 -1.1635271 -3.05186339 -0.96956854 0 0 Z " fill="#EAC469" transform="translate(244,393)"/>
<path d="M0 0 C1.32 0.33 2.64 0.66 4 1 C4 2.98 4 4.96 4 7 C13.24 7 22.48 7 32 7 C32 7.33 32 7.66 32 8 C25.26815587 8.87686585 18.7214632 9.12387197 11.9375 9.0625 C10.97650391 9.05798828 10.01550781 9.05347656 9.02539062 9.04882812 C6.68356617 9.03717726 4.34177434 9.01924746 2 9 C1.34 6.03 0.68 3.06 0 0 Z " fill="#CAA95E" transform="translate(234,332)"/>
<path d="M0 0 C0.33 0 0.66 0 1 0 C1.18637539 7.76564115 1.30711314 15.167755 -0.48828125 22.76953125 C-1.26469716 26.15375633 -1.61683643 29.5515279 -2 33 C-1.38511719 32.97679687 -0.77023438 32.95359375 -0.13671875 32.9296875 C0.67152344 32.91164063 1.47976562 32.89359375 2.3125 32.875 C3.11300781 32.85179687 3.91351563 32.82859375 4.73828125 32.8046875 C7 33 7 33 10 35 C5.71 34.67 1.42 34.34 -3 34 C-4.24850568 30.25448295 -3.74958904 27.837858 -3.22265625 23.92578125 C-3.13245712 23.2419487 -3.042258 22.55811615 -2.94932556 21.8535614 C-2.66011551 19.67229737 -2.3614358 17.49245028 -2.0625 15.3125 C-1.86460881 13.83276582 -1.66733574 12.35294883 -1.47070312 10.87304688 C-0.98763426 7.24771008 -0.4960652 3.62358401 0 0 Z " fill="#CA9E41" transform="translate(114,303)"/>
<path d="M0 0 C-0.45034123 1.62723299 -0.91055354 3.25173664 -1.375 4.875 C-1.75785156 6.23238281 -1.75785156 6.23238281 -2.1484375 7.6171875 C-3 10 -3 10 -5 12 C-4.34 8.7 -3.68 5.4 -3 2 C-10.92 2 -18.84 2 -27 2 C-27 1.67 -27 1.34 -27 1 C-17.98175113 -0.06996173 -9.06335876 -0.10234659 0 0 Z " fill="#DBB766" transform="translate(283,349)"/>
<path d="M0 0 C2.68300071 1.34150035 2.8437032 2.60687715 3.9453125 5.3671875 C4.29980469 6.25277344 4.65429688 7.13835937 5.01953125 8.05078125 C5.38433594 8.98277344 5.74914062 9.91476562 6.125 10.875 C6.49753906 11.79925781 6.87007813 12.72351563 7.25390625 13.67578125 C10 20.60639881 10 20.60639881 10 24 C9.01 24 8.02 24 7 24 C7 22.02 7 20.04 7 18 C6.34 18 5.68 18 5 18 C4.15875684 15.75267898 3.32685168 13.50261215 2.5 11.25 C2.26152344 10.61578125 2.02304687 9.9815625 1.77734375 9.328125 C0.55198242 5.96713393 0 3.63128413 0 0 Z " fill="#DFBA60" transform="translate(275,268)"/>
<path d="M0 0 C12.54 0.66 25.08 1.32 38 2 C38 2.33 38 2.66 38 3 C33.66668104 3.0292427 29.33338779 3.04688017 25 3.0625 C23.77925781 3.07087891 22.55851562 3.07925781 21.30078125 3.08789062 C15.10039068 3.10464844 9.1273793 2.97272146 3 2 C2.67 3.32 2.34 4.64 2 6 C1.34 4.02 0.68 2.04 0 0 Z " fill="#AD8939" transform="translate(125,348)"/>
<path d="M0 0 C8.44382677 3.10815709 16.83313674 6.20824206 25 10 C25 10.99 25 11.98 25 13 C24.34 13 23.68 13 23 13 C23 12.34 23 11.68 23 11 C22.01 11 21.02 11 20 11 C20 10.34 20 9.68 20 9 C19.41992188 8.87882813 18.83984375 8.75765625 18.2421875 8.6328125 C5.53457132 5.90675622 5.53457132 5.90675622 0 2 C0 1.34 0 0.68 0 0 Z " fill="#E4BC64" transform="translate(220,214)"/>
<path d="M0 0 C0 1.66666667 0 3.33333333 0 5 C-6.75 6 -6.75 6 -9 6 C-8.938125 6.70125 -8.87625 7.4025 -8.8125 8.125 C-9.04256101 11.65260212 -10.29200568 13.93984351 -12 17 C-12.66 16.67 -13.32 16.34 -14 16 C-13.37664397 13.98608051 -12.69971973 11.98867713 -12 10 C-11.649375 8.96875 -11.29875 7.9375 -10.9375 6.875 C-8.16215149 2.75674092 -4.57136417 1.62920736 0 0 Z " fill="#C1963B" transform="translate(166,223)"/>
<path d="M0 0 C1 3 1 3 0.0625 6 C-2.78744186 10.14536998 -5.24033753 10.59550943 -10 12 C-11.4606285 9.35261084 -12 8.10551666 -12 5 C-11.13375 5.495 -11.13375 5.495 -10.25 6 C-7.80116138 7.27075898 -7.80116138 7.27075898 -4 7 C-3.67 6.34 -3.34 5.68 -3 5 C-2.34 5 -1.68 5 -1 5 C-0.67 3.35 -0.34 1.7 0 0 Z " fill="#F1C15D" transform="translate(272,373)"/>
<path d="M0 0 C9.24 0 18.48 0 28 0 C28 0.33 28 0.66 28 1 C27.22285645 1.01458252 26.44571289 1.02916504 25.64501953 1.04418945 C22.13783312 1.11846978 18.6316199 1.21519589 15.125 1.3125 C13.90167969 1.33505859 12.67835938 1.35761719 11.41796875 1.38085938 C9.66806641 1.4340332 9.66806641 1.4340332 7.8828125 1.48828125 C6.80402832 1.51446533 5.72524414 1.54064941 4.61376953 1.56762695 C3.75122559 1.71031006 2.88868164 1.85299316 2 2 C1.01 3.485 1.01 3.485 0 5 C-0.66 5 -1.32 5 -2 5 C-1.34 3.35 -0.68 1.7 0 0 Z " fill="#D2A245" transform="translate(137,258)"/>
<path d="M0 0 C0.33 0 0.66 0 1 0 C1.02505615 0.76666992 1.0501123 1.53333984 1.07592773 2.32324219 C1.19201423 5.79899283 1.31468366 9.27448092 1.4375 12.75 C1.47681641 13.9565625 1.51613281 15.163125 1.55664062 16.40625 C1.59853516 17.56640625 1.64042969 18.7265625 1.68359375 19.921875 C1.72025146 20.99018555 1.75690918 22.05849609 1.79467773 23.15917969 C1.96986909 25.58311152 2.31198487 27.67886712 3 30 C2.01 29.34 1.02 28.68 0 28 C-0.34057617 25.20263672 -0.34057617 25.20263672 -0.29296875 21.6796875 C-0.28330078 20.42285156 -0.27363281 19.16601562 -0.26367188 17.87109375 C-0.23853516 16.55238281 -0.21339844 15.23367188 -0.1875 13.875 C-0.17245483 12.53517097 -0.15876613 11.19532596 -0.14648438 9.85546875 C-0.11102872 6.56991158 -0.06160849 3.28515418 0 0 Z " fill="#120300" transform="translate(173,351)"/>
<path d="M0 0 C-3.68400584 1.23104155 -6.91474976 0.90767252 -10.75 0.5625 C-11.92046875 0.46066406 -13.0909375 0.35882813 -14.296875 0.25390625 C-15.63492188 0.12822266 -15.63492188 0.12822266 -17 0 C-12.10845424 -4.89154576 -5.6720035 -2.57818341 0 0 Z " fill="#DEB763" transform="translate(214,211)"/>
<path d="M0 0 C0.99 0 1.98 0 3 0 C3 0.99 3 1.98 3 3 C4.32 2.67 5.64 2.34 7 2 C7 1.34 7 0.68 7 0 C8.32 0.66 9.64 1.32 11 2 C7.37 3.32 3.74 4.64 0 6 C-0.33 4.35 -0.66 2.7 -1 1 C-0.67 0.67 -0.34 0.34 0 0 Z " fill="#ECBE5D" transform="translate(245,386)"/>
<path d="M0 0 C0 0.66 0 1.32 0 2 C-0.66 2 -1.32 2 -2 2 C-2.33 3.32 -2.66 4.64 -3 6 C-5.64 6 -8.28 6 -11 6 C-11 5.34 -11 4.68 -11 4 C-9.5437455 3.32880451 -8.08492133 2.66318193 -6.625 2 C-5.81289062 1.62875 -5.00078125 1.2575 -4.1640625 0.875 C-2 0 -2 0 0 0 Z " fill="#D09B39" transform="translate(182,217)"/>
<path d="M0 0 C5.28 0.33 10.56 0.66 16 1 C16 1.33 16 1.66 16 2 C11.71 2 7.42 2 3 2 C2.67 3.32 2.34 4.64 2 6 C1.34 4.02 0.68 2.04 0 0 Z " fill="#A3823F" transform="translate(125,348)"/>
<path d="M0 0 C1.65 0 3.3 0 5 0 C5.33 1.32 5.66 2.64 6 4 C5.01 4.33 4.02 4.66 3 5 C2.01 4.34 1.02 3.68 0 3 C0 2.01 0 1.02 0 0 Z " fill="#ECC051" transform="translate(176,394)"/>
<path d="M0 0 C1.45880109 0.14107747 2.91703551 0.28802415 4.375 0.4375 C5.59316406 0.55931641 5.59316406 0.55931641 6.8359375 0.68359375 C9 1 9 1 11 2 C11 2.99 11 3.98 11 5 C9.53932801 4.54917531 8.08151968 4.08906463 6.625 3.625 C5.81289062 3.36976563 5.00078125 3.11453125 4.1640625 2.8515625 C2 2 2 2 0 0 Z " fill="#C39538" transform="translate(165,392)"/>
<path d="M0 0 C0.33 0.99 0.66 1.98 1 3 C-4.75 8 -4.75 8 -7 8 C-7.33 8.99 -7.66 9.98 -8 11 C-7.63692621 8.31325398 -7.33095772 6.44127696 -5.6875 4.25 C-3.80095268 2.85255754 -2.29800696 2.3962081 0 2 C0 1.34 0 0.68 0 0 Z " fill="#55524B" transform="translate(112,290)"/>
<path d="M0 0 C2.8125 0.5625 2.8125 0.5625 6 2 C7.44088563 4.28536073 8.13569208 6.40707624 9 9 C8.01 9.495 8.01 9.495 7 10 C6.5875 9.05125 6.175 8.1025 5.75 7.125 C3.9959869 3.99283376 3.29148243 3.13499394 0 2 C0 1.34 0 0.68 0 0 Z " fill="#DBB962" transform="translate(246,225)"/>
<path d="M0 0 C2.99332739 0.9977758 3.94766315 1.7522025 6 4 C5.67 4.66 5.34 5.32 5 6 C3.02 5.34 1.04 4.68 -1 4 C-0.67 2.68 -0.34 1.36 0 0 Z " fill="#E5A62D" transform="translate(169,388)"/>
<path d="M0 0 C1.21236328 0.04060547 1.21236328 0.04060547 2.44921875 0.08203125 C3.06410156 0.11683594 3.67898437 0.15164062 4.3125 0.1875 C2.9925 1.5075 1.6725 2.8275 0.3125 4.1875 C-0.0175 3.5275 -0.3475 2.8675 -0.6875 2.1875 C-2.9975 2.5175 -5.3075 2.8475 -7.6875 3.1875 C-5.26849268 0.20484049 -3.789448 -0.16475861 0 0 Z " fill="#EFC05A" transform="translate(199.6875,210.8125)"/>
<path d="M0 0 C5.75 1.75 5.75 1.75 8 4 C5 5 5 5 1.8125 3.5625 C0.884375 3.046875 -0.04375 2.53125 -1 2 C-0.67 1.34 -0.34 0.68 0 0 Z " fill="#D09D35" transform="translate(153,385)"/>
<path d="M0 0 C0.33 0 0.66 0 1 0 C1.36923077 4.55384615 1.36923077 4.55384615 -0.5 6.8125 C-0.995 7.204375 -1.49 7.59625 -2 8 C-2.99 7.67 -3.98 7.34 -5 7 C-4.19152271 5.83054208 -3.37810888 4.66449539 -2.5625 3.5 C-2.11003906 2.8503125 -1.65757812 2.200625 -1.19140625 1.53125 C-0.79824219 1.0259375 -0.40507812 0.520625 0 0 Z " fill="#180701" transform="translate(235,374)"/>
<path d="M0 0 C6.52307692 -0.36923077 6.52307692 -0.36923077 8.9375 1.5 C9.288125 1.995 9.63875 2.49 10 3 C5.82412255 4.39195915 3.86525224 2.82323219 0 1 C0 0.67 0 0.34 0 0 Z " fill="#271708" transform="translate(243,223)"/>
<path d="M0 0 C0 0.99 0 1.98 0 3 C-1.875 4.0625 -1.875 4.0625 -4 5 C-4.66 4.67 -5.32 4.34 -6 4 C-6.33 4.66 -6.66 5.32 -7 6 C-7.33 5.01 -7.66 4.02 -8 3 C-5.36 2.01 -2.72 1.02 0 0 Z " fill="#CE9D3B" transform="translate(191,213)"/>
<path d="M0 0 C2.375 -0.1875 2.375 -0.1875 5 0 C5.66 0.99 6.32 1.98 7 3 C4.69 3.33 2.38 3.66 0 4 C0 2.68 0 1.36 0 0 Z " fill="#E7B955" transform="translate(169,379)"/>
<path d="M0 0 C0.99 0 1.98 0 3 0 C2.01 2.97 1.02 5.94 0 9 C-0.33 9 -0.66 9 -1 9 C-0.67 6.03 -0.34 3.06 0 0 Z " fill="#E3BD63" transform="translate(275,362)"/>
<path d="M0 0 C1 3 1 3 -0.4375 6.1875 C-1.2109375 7.5796875 -1.2109375 7.5796875 -2 9 C-2.66 9 -3.32 9 -4 9 C-3.67 7.68 -3.34 6.36 -3 5 C-2.34 5 -1.68 5 -1 5 C-0.67 3.35 -0.34 1.7 0 0 Z " fill="#DAB866" transform="translate(272,373)"/>
<path d="M0 0 C0 1.66666667 0 3.33333333 0 5 C-0.99 5.33 -1.98 5.66 -3 6 C-3.66 5.34 -4.32 4.68 -5 4 C-3 1 -3 1 0 0 Z " fill="#CE9D34" transform="translate(166,223)"/>
</svg>
